<svg xmlns="http://www.w3.org/2000/svg" xmlns:xlink="http://www.w3.org/1999/xlink" width="780" height="150" viewBox="0 0 780 150"><defs><style>.a{fill:#71005c;}.b{clip-path:url(#a);}.c{fill:#67184d;}.d,.i{fill:#9b2f7d;}.d{opacity:0.49;}.e{fill:#ff40bf;}.f,.j{fill:none;stroke-linecap:round;stroke-miterlimit:10;}.f{stroke:#ff9522;stroke-width:0.9px;}.g{fill:#ff9522;}.h{fill:#fa8197;}.j{stroke:#835373;stroke-width:1.5px;}</style><clipPath id="a"><rect class="a" width="780" height="150" rx="4" transform="translate(331 753)"/></clipPath></defs><g class="b" transform="translate(-331 -753)"><g transform="translate(331 753)"><rect class="c" width="780" height="150"/><path class="d" d="M546.82,53.7c.29-.5,1.12-.61,2-.28L555.78,56a28.86,28.86,0,0,0,2-10.58v-.78l-7.39.06c-1,0-1.72-.38-1.82-1l-.6-3.43c-.1-.58.46-1.2,1.38-1.52l7-2.48a28.7,28.7,0,0,0-5.77-10l-5.62,4.79c-.74.63-1.56.81-2,.44l-2.68-2.24c-.44-.38-.41-1.21.08-2.06l3.75-6.37A28.7,28.7,0,0,0,533.23,17L532,24.25c-.17,1-.68,1.62-1.26,1.62h-3.49c-.58,0-1.1-.66-1.26-1.62L524.78,17a28.7,28.7,0,0,0-10.84,3.94l3.75,6.37c.49.85.52,1.68.08,2.06l-2.67,2.24c-.45.37-1.27.19-2-.44l-5.62-4.79a28.881,28.881,0,0,0-5.78,10l7,2.48c.92.32,1.48.94,1.38,1.52l-.6,3.43c-.11.58-.84,1-1.82,1l-7.39-.06v.78a28.57,28.57,0,0,0,2,10.58l6.93-2.59c.91-.33,1.74-.22,2,.28l1.75,3c.29.51,0,1.28-.78,1.9l-5.7,4.71a29,29,0,0,0,8.83,7.41l3.65-6.43c.48-.85,1.19-1.29,1.74-1.09L524,64.41c.55.2.81,1,.63,2l-1.34,7.26a28.94,28.94,0,0,0,11.53,0l-1.34-7.26c-.18-1,.08-1.76.63-2l3.27-1.19c.55-.2,1.26.24,1.74,1.09l3.65,6.43a29,29,0,0,0,8.83-7.41l-5.7-4.71c-.75-.62-1.07-1.39-.77-1.9ZM529,54.08a8.49,8.49,0,1,1,6.01-2.483A8.5,8.5,0,0,1,529,54.08Z"/><path class="d" d="M278.28,108c.35-.61,1.35-.75,2.45-.34l8.33,3.11a34.52,34.52,0,0,0,2.41-12.73V97.1l-8.89.07c-1.17,0-2.06-.46-2.18-1.15l-.73-4.13c-.12-.69.56-1.44,1.66-1.83l8.38-3a34.5,34.5,0,0,0-6.94-12L276,80.85c-.9.76-1.88,1-2.42.52l-3.21-2.7c-.54-.45-.5-1.45.09-2.46L275,68.54a34.47,34.47,0,0,0-13-4.75l-1.47,8.77c-.2,1.16-.81,2-1.52,2h-4.19c-.71,0-1.32-.8-1.52-2l-1.47-8.77a34.47,34.47,0,0,0-13,4.75l4.51,7.67c.59,1,.63,2,.09,2.46l-3.21,2.7c-.54.45-1.53.24-2.42-.52l-6.76-5.77a34.65,34.65,0,0,0-6.94,12l8.38,3c1.11.39,1.78,1.14,1.66,1.83L233.3,96c-.12.69-1,1.16-2.18,1.15l-8.89-.07v.94a34.49,34.49,0,0,0,2.42,12.73l8.33-3.11c1.1-.41,2.1-.27,2.45.34l2.1,3.63c.35.61,0,1.54-.93,2.29l-6.86,5.65a34.81,34.81,0,0,0,10.63,8.93l4.38-7.74c.58-1,1.43-1.56,2.09-1.32l4,1.44c.66.24,1,1.2.75,2.35L249.91,132a35.2,35.2,0,0,0,13.87,0l-1.61-8.75c-.21-1.15.09-2.11.75-2.35l3.95-1.44c.66-.24,1.51.3,2.09,1.32l4.38,7.74A34.809,34.809,0,0,0,284,119.58l-6.86-5.65c-.9-.75-1.28-1.68-.93-2.29Zm-21.44.45a10.225,10.225,0,1,1,0,.01Z"/><path class="c" d="M264.25,148.78V43.63A4.56,4.56,0,0,1,268.74,39h257a4.56,4.56,0,0,1,4.48,4.64V148.78"/><path class="e" d="M269.44,39H525a5.19,5.19,0,0,1,5.19,5.19V58.6h-266V44.17A5.19,5.19,0,0,1,269.44,39Z"/><line class="f" x1="7.11" y2="7.11" transform="translate(515.11 45.24)"/><line class="f" x2="7.11" y2="7.11" transform="translate(515.11 45.24)"/><circle class="g" cx="3.21" cy="3.21" r="3.21" transform="translate(270.18 45.59)"/><circle class="h" cx="3.21" cy="3.21" r="3.21" transform="translate(280.83 45.59)"/><circle class="i" cx="3.21" cy="3.21" r="3.21" transform="translate(291.48 45.59)"/><path class="j" d="M264.25,106.8V43.63A4.64,4.64,0,0,1,268.89,39h256.7a4.63,4.63,0,0,1,4.64,4.64v78.43"/><rect class="g" width="248.25" height="11.21" rx="5.605" transform="translate(276.6 74.42)"/><rect class="g" width="157.44" height="11.21" rx="5.605" transform="translate(276.6 92.63)"/><rect class="g" width="210.48" height="11.21" rx="5.605" transform="translate(276.6 110.85)"/></g></g></svg>