<svg xmlns="http://www.w3.org/2000/svg" xmlns:xlink="http://www.w3.org/1999/xlink" width="780" height="150" viewBox="0 0 780 150"><defs><style>.a{fill:#67184d;}.b{clip-path:url(#a);}.c{fill:#835373;}.d{fill:#ff554d;}.e{fill:#9b2f7d;}.f{fill:none;stroke:#ff40bf;stroke-linecap:round;stroke-miterlimit:10;stroke-width:1.5px;}.g{fill:#ff40bf;}.h{fill:#ff9522;}</style><clipPath id="a"><rect class="a" width="780" height="150" rx="4" transform="translate(331 1095)"/></clipPath></defs><g class="b" transform="translate(-331 -1095)"><g transform="translate(331 1095)"><rect class="a" width="780" height="150" rx="4"/><path class="c" d="M299.41,16.65h1.33c12,.58,21,9.51,21,20.76a16.137,16.137,0,0,1-.32,3l-.35,1.7,1.71.26a24.62,24.62,0,0,1,12.37,6.06c2.79,2.53,6.1,6.76,6.1,12.52,0,13.39-10.61,17-16.88,17H250.84c-9.26,0-11.72-6.61-11.72-10.52a11.24,11.24,0,0,1,3-7.56,10.34,10.34,0,0,1,7.62-3.34h.71l1.95.13-.21-1.94c-.62-5.93.86-11.22,4.18-14.9s8-5.53,13.75-5.53a29.33,29.33,0,0,1,5.63.58l1.51.3.4-1.48c.48-1.75,5.14-17.14,21.74-17.14m0-1.64c-15.68,0-21.9,13.12-23.33,18.35a30.82,30.82,0,0,0-5.95-.61C257.2,32.75,249.21,42,250.57,55c-.26,0-.53-.07-.82-.07a12.49,12.49,0,0,0-12.28,12.54c0,5.08,3.41,12.16,13.37,12.17h73.52c7.8,0,18.53-4.82,18.53-18.61,0-11-11.09-18.9-19.88-20.21a17.068,17.068,0,0,0,.36-3.34c.06-12.33-9.79-21.8-22.56-22.42h-1.4Z"/><path class="d" d="M299.53,61.38V95.56h31.22V61.38a15.528,15.528,0,0,0-4.568-11l-.542-.512a6.68,6.68,0,0,0-.57-.49c-.16-.14-.34-.28-.52-.41a.7.7,0,0,0-.17-.13l-.51-.36c-.21-.14-.41-.28-.63-.41l-.66-.38h-.07c-.1,0-.19-.1-.29-.15l-.16-.07-.14-.08-.23-.11-.47-.2-.31-.13-.27-.1-.13-.05h-.2l-.4-.13-.12-.05h-.59a.48.48,0,0,0-.15,0,.35.35,0,0,0-.11,0h-.12a3.291,3.291,0,0,0-.36-.07h-.14c-.26-.06-.51-.1-.76-.14l-.76-.1h-.09L316,45.8h-.84a15.64,15.64,0,0,0-15.61,15.61Z"/><path class="e" d="M315.33,45.78H316a2.572,2.572,0,0,1,.68.06h.1l.76.1.59.1h.31l.36.08h.69l.3.09a5.252,5.252,0,0,1,.63.22h.1l.39.15.32.13a4.842,4.842,0,0,1,.47.21l.23.11.14.06.13.07h0l.29.15.08.05c.22.12.44.24.65.37s.43.27.64.41a5.743,5.743,0,0,1,.5.36l.18.13.52.41c.19.15.38.32.56.49s.37.34.55.51a15.55,15.55,0,0,1,4.57,11v53.52a15.61,15.61,0,0,0,15.61,15.61H474.52V61.39a15.61,15.61,0,0,0-15.61-15.61Z"/><line class="f" y2="5.53" transform="translate(511.66 46.24)"/><line class="f" y2="5.54" transform="translate(511.66 57.34)"/><line class="f" x1="5.53" transform="translate(514.45 54.61)"/><line class="f" x1="5.54" transform="translate(503.34 54.61)"/><line class="f" y2="7.11" transform="translate(529.82 29.68)"/><line class="f" y2="7.12" transform="translate(529.82 43.94)"/><line class="f" x1="7.11" transform="translate(533.4 40.43)"/><line class="f" x1="7.11" transform="translate(519.13 40.43)"/><path class="g" d="M456.32,49.17l10.36,24.62,26.88,2.42a3,3,0,0,1,1.68,5.32L474.81,98.8,481,125.26a3,3,0,0,1-4.53,3.26l-23-14.27-23,14.27a3,3,0,0,1-4.54-3.26l6.24-26.46L411.83,81.53a3,3,0,0,1,1.68-5.32l26.88-2.42,10.36-24.62a3,3,0,0,1,5.57,0Z"/><path class="h" d="M346.35,130.52H503.09a15.61,15.61,0,0,0,15.62-15.61,15.223,15.223,0,0,0-.41-3.53H361.55a15.219,15.219,0,0,1,.41,3.53A15.61,15.61,0,0,1,346.35,130.52Z"/></g></g></svg>