<svg xmlns="http://www.w3.org/2000/svg" xmlns:xlink="http://www.w3.org/1999/xlink" width="780" height="150" viewBox="0 0 780 150"><defs><style>.a{fill:#fff;}.b{fill:#f2f2f2;}.c{fill:#313131;font-size:24px;font-family:Roboto-Light, Roboto;font-weight:300;}.d{fill:#323232;font-size:15px;font-family:Roboto-Regular, Roboto;}.e{clip-path:url(#a);}.f,.g,.h{fill:none;}.f{stroke:#b3b3b3;stroke-width:1.05px;}.f,.h{stroke-linecap:round;stroke-linejoin:round;}.g{stroke:#d3d3d3;stroke-width:2px;}.h{stroke:#1473e6;stroke-width:3px;}</style><clipPath id="a"><rect class="a" width="88" height="87" rx="10" transform="translate(385 401)"/></clipPath></defs><g transform="translate(-332 -369)"><rect class="b" width="780" height="150" rx="4" transform="translate(332 369)"/><text class="c" transform="translate(548 453)"><tspan x="-46.781" y="0">Integrate</tspan></text><text class="d" transform="translate(650 450)"><tspan x="0" y="0">API references and code samples</tspan></text><g class="e"><g transform="translate(377.673 394.055)"><path class="f" d="M65.652,46.84l19.872,8.283,9.028-11.936a1.281,1.281,0,0,0-.535-1.932L70.334,31.493"/><path class="f" d="M41.717,14.7l-.924-1.05a1.89,1.89,0,0,0-1.995-.661l-3.149,1.9a13.017,13.017,0,0,0-5.679-1.921L28.658,9.511a1.921,1.921,0,0,0-1.995-.682L24,9.364a1.89,1.89,0,0,0-1.575,1.4l.084,3.653A13.132,13.132,0,0,0,18,18.381l-3.611-.535a1.879,1.879,0,0,0-1.585,1.386l-.871,2.582a1.89,1.89,0,0,0,.42,2.1l3.2,1.753a14.077,14.077,0,0,0,.252,3.013,13.479,13.479,0,0,0,.987,2.813l-2.278,2.855a1.9,1.9,0,0,0,.409,2.1l1.8,2.1a1.89,1.89,0,0,0,1.995.661l3.149-1.9a13.017,13.017,0,0,0,5.679,1.921l1.333,3.4a1.921,1.921,0,0,0,1.995.682l1.6-.325"/><path class="f" d="M34.023,22.486a6.362,6.362,0,1,0-4.042,9.784"/><path class="f" d="M65.83,46.42c-.945,1.27-2.005,2.582-3.149,4.021A14.329,14.329,0,0,0,59.532,59.5v5.942"/><path class="f" d="M56.687,58.1H44.09V55.385a2.677,2.677,0,0,0-.588-1.669C37.34,46.053,33.214,42,33.214,34.558c0-10.5,8.272-19.022,18.423-18.9H51.9c10.151-.126,18.434,8.356,18.434,18.833,0,4.755-1.68,8.115-4.493,11.925"/><path class="f" d="M50.136,51.249l-4.85-14.508a1.627,1.627,0,0,1,1.543-2.1h8.178a1.627,1.627,0,0,1,1.575,2.026L55.7,40.206"/><path class="f" d="M17.184,55.123,7.852,42.431,42.064,56.613l9.448,12.471L85.607,55.1V77.209a1.281,1.281,0,0,1-.8,1.186L51.868,92.042a1.312,1.312,0,0,1-.976,0L17.94,78.4a1.27,1.27,0,0,1-.777-1.176V55.4"/><line class="f" y2="14.581" transform="translate(51.7 72.832)"/><line class="f" x2="22.15" y2="9.469" transform="translate(22.643 57.799)"/></g></g><line class="g" y2="71.996" transform="translate(615.007 408.5)"/><path class="h" d="M-12078.579-11721.4l11.706,11.707-11.706,11.706" transform="translate(13124.342 12153.896)"/></g></svg>